<svg width="240" height="28" viewBox="0 0 240 28" fill="none" xmlns="http://www.w3.org/2000/svg">
<g clip-path="url(#clip0_2725_4707)">
<path d="M27.0457 10.0756C26.5711 8.36843 24.8035 7.36899 23.0963 7.84368C21.3892 8.31837 20.3898 10.0859 20.8644 11.7931C21.5756 14.3495 20.8524 17.1027 18.9795 18.9773C16.7562 21.2006 13.4541 21.6994 10.7441 20.4773C10.4092 20.3271 10.0364 20.2874 9.68251 20.3824L7.11229 21.0728C6.72736 21.1764 6.37523 20.8243 6.47707 20.4376L7.16752 17.8674C7.26246 17.5135 7.22449 17.1389 7.07259 16.8058C5.85048 14.0958 6.34933 10.7937 8.5726 8.57038C10.4472 6.6958 13.1987 5.97427 15.7568 6.68544C17.4639 7.16013 19.2315 6.16069 19.7062 4.45354C20.1809 2.74639 19.1815 0.978822 17.4743 0.504133C12.6929 -0.824995 7.5421 0.528299 4.03631 4.03409C-1.33372 9.40411 -1.33372 18.1436 4.03631 23.5136C9.40633 28.8836 18.1458 28.8836 23.5158 23.5136C27.0233 20.0061 28.3749 14.857 27.0457 10.0756Z" fill="#585AE0"/>
</g>
<path d="M37.8376 19.4249C37.0361 19.4249 36.2898 19.2947 35.5986 19.0342C34.9173 18.7637 34.3213 18.3881 33.8104 17.9072C33.3095 17.4163 32.9188 16.8403 32.6383 16.1791C32.3578 15.5179 32.2175 14.7967 32.2175 14.0153C32.2175 13.2339 32.3578 12.5126 32.6383 11.8514C32.9188 11.1902 33.3145 10.6192 33.8254 10.1383C34.3363 9.64747 34.9324 9.2718 35.6136 9.01133C36.2948 8.74085 37.0411 8.60561 37.8526 8.60561C38.7141 8.60561 39.5005 8.75587 40.2118 9.05641C40.9231 9.34693 41.5241 9.78271 42.015 10.3637L40.7528 11.5509C40.3721 11.1401 39.9463 10.8346 39.4755 10.6342C39.0046 10.4239 38.4937 10.3187 37.9427 10.3187C37.3918 10.3187 36.8859 10.4088 36.425 10.5891C35.9742 10.7695 35.5785 11.0249 35.2379 11.3555C34.9073 11.6861 34.6469 12.0768 34.4565 12.5276C34.2762 12.9784 34.186 13.4743 34.186 14.0153C34.186 14.5562 34.2762 15.0521 34.4565 15.5029C34.6469 15.9537 34.9073 16.3444 35.2379 16.675C35.5785 17.0056 35.9742 17.2611 36.425 17.4414C36.8859 17.6217 37.3918 17.7119 37.9427 17.7119C38.4937 17.7119 39.0046 17.6117 39.4755 17.4113C39.9463 17.201 40.3721 16.8854 40.7528 16.4646L42.015 17.6668C41.5241 18.2378 40.9231 18.6736 40.2118 18.9741C39.5005 19.2747 38.7091 19.4249 37.8376 19.4249ZM48.5955 19.4249C47.774 19.4249 47.0177 19.2897 46.3264 19.0192C45.6352 18.7487 45.0341 18.373 44.5232 17.8922C44.0123 17.4013 43.6166 16.8303 43.3361 16.1791C43.0556 15.5179 42.9153 14.7967 42.9153 14.0153C42.9153 13.2339 43.0556 12.5176 43.3361 11.8664C43.6166 11.2052 44.0123 10.6342 44.5232 10.1534C45.0341 9.66249 45.6352 9.28181 46.3264 9.01133C47.0177 8.74085 47.769 8.60561 48.5804 8.60561C49.4019 8.60561 50.1533 8.74085 50.8345 9.01133C51.5257 9.28181 52.1268 9.66249 52.6377 10.1534C53.1486 10.6342 53.5443 11.2052 53.8248 11.8664C54.1053 12.5176 54.2456 13.2339 54.2456 14.0153C54.2456 14.7967 54.1053 15.5179 53.8248 16.1791C53.5443 16.8403 53.1486 17.4113 52.6377 17.8922C52.1268 18.373 51.5257 18.7487 50.8345 19.0192C50.1533 19.2897 49.4069 19.4249 48.5955 19.4249ZM48.5804 17.7119C49.1114 17.7119 49.6023 17.6217 50.0531 17.4414C50.5039 17.2611 50.8946 17.0056 51.2252 16.675C51.5558 16.3344 51.8112 15.9437 51.9915 15.5029C52.1819 15.0521 52.277 14.5562 52.277 14.0153C52.277 13.4743 52.1819 12.9834 51.9915 12.5426C51.8112 12.0918 51.5558 11.7011 51.2252 11.3705C50.8946 11.0299 50.5039 10.7695 50.0531 10.5891C49.6023 10.4088 49.1114 10.3187 48.5804 10.3187C48.0495 10.3187 47.5586 10.4088 47.1078 10.5891C46.667 10.7695 46.2763 11.0299 45.9357 11.3705C45.6051 11.7011 45.3447 12.0918 45.1543 12.5426C44.974 12.9834 44.8838 13.4743 44.8838 14.0153C44.8838 14.5462 44.974 15.0371 45.1543 15.4879C45.3447 15.9387 45.6051 16.3344 45.9357 16.675C46.2663 17.0056 46.657 17.2611 47.1078 17.4414C47.5586 17.6217 48.0495 17.7119 48.5804 17.7119ZM59.577 19.4249C58.7556 19.4249 57.9692 19.3097 57.2178 19.0793C56.4665 18.8389 55.8704 18.5333 55.4296 18.1627L56.1058 16.645C56.5266 16.9756 57.0475 17.251 57.6686 17.4714C58.2897 17.6918 58.9259 17.802 59.577 17.802C60.128 17.802 60.5738 17.7419 60.9144 17.6217C61.255 17.5015 61.5055 17.3412 61.6658 17.1408C61.8261 16.9305 61.9062 16.6951 61.9062 16.4346C61.9062 16.114 61.791 15.8586 61.5606 15.6682C61.3302 15.4679 61.0296 15.3126 60.659 15.2024C60.2983 15.0822 59.8926 14.972 59.4418 14.8718C59.001 14.7716 58.5552 14.6564 58.1044 14.5262C57.6636 14.3859 57.2579 14.2106 56.8872 14.0002C56.5266 13.7798 56.2311 13.4893 56.0006 13.1287C55.7702 12.768 55.655 12.3072 55.655 11.7462C55.655 11.1752 55.8053 10.6543 56.1058 10.1834C56.4164 9.70257 56.8822 9.32189 57.5033 9.04138C58.1345 8.75087 58.9309 8.60561 59.8926 8.60561C60.5237 8.60561 61.1498 8.68575 61.771 8.84604C62.3921 9.00632 62.933 9.23673 63.3939 9.53727L62.7778 11.055C62.3069 10.7745 61.821 10.5691 61.3201 10.4389C60.8193 10.2986 60.3384 10.2285 59.8776 10.2285C59.3366 10.2285 58.8958 10.2936 58.5552 10.4239C58.2246 10.5541 57.9792 10.7244 57.8189 10.9348C57.6686 11.1451 57.5935 11.3856 57.5935 11.6561C57.5935 11.9766 57.7037 12.2371 57.9241 12.4374C58.1545 12.6278 58.45 12.7781 58.8107 12.8883C59.1813 12.9985 59.5921 13.1086 60.0429 13.2188C60.4937 13.319 60.9395 13.4342 61.3803 13.5645C61.8311 13.6947 62.2368 13.865 62.5974 14.0754C62.9681 14.2857 63.2636 14.5713 63.484 14.9319C63.7144 15.2925 63.8296 15.7484 63.8296 16.2993C63.8296 16.8603 63.6744 17.3813 63.3638 17.8621C63.0633 18.333 62.5974 18.7137 61.9663 19.0042C61.3352 19.2847 60.5388 19.4249 59.577 19.4249ZM65.7667 19.2747V8.75587H67.3745L71.9728 16.4346H71.1313L75.6543 8.75587H77.2622L77.2772 19.2747H75.4289L75.4139 11.6561H75.8046L71.9577 18.0725H71.0862L67.1792 11.6561H67.63V19.2747H65.7667ZM82.7837 19.2747L87.5172 8.75587H89.4406L94.1891 19.2747H92.1455L88.0732 9.79273H88.8546L84.7973 19.2747H82.7837ZM84.9626 16.8403L85.4886 15.3076H91.1687L91.6947 16.8403H84.9626ZM95.5269 19.2747V8.75587H97.4803V19.2747H95.5269Z" fill="#585AE0"/>
<path d="M107.739 19.4249C106.918 19.4249 106.131 19.3097 105.38 19.0793C104.629 18.8389 104.033 18.5333 103.592 18.1627L104.268 16.645C104.689 16.9756 105.21 17.251 105.831 17.4714C106.452 17.6918 107.088 17.802 107.739 17.802C108.29 17.802 108.736 17.7419 109.077 17.6217C109.417 17.5015 109.668 17.3412 109.828 17.1408C109.988 16.9305 110.068 16.6951 110.068 16.4346C110.068 16.114 109.953 15.8586 109.723 15.6682C109.492 15.4679 109.192 15.3126 108.821 15.2024C108.46 15.0822 108.055 14.972 107.604 14.8718C107.163 14.7716 106.717 14.6564 106.267 14.5262C105.826 14.3859 105.42 14.2106 105.049 14.0002C104.689 13.7798 104.393 13.4893 104.163 13.1287C103.932 12.768 103.817 12.3072 103.817 11.7462C103.817 11.1752 103.967 10.6543 104.268 10.1834C104.579 9.70257 105.044 9.32189 105.666 9.04138C106.297 8.75087 107.093 8.60561 108.055 8.60561C108.686 8.60561 109.312 8.68575 109.933 8.84604C110.554 9.00632 111.095 9.23673 111.556 9.53727L110.94 11.055C110.469 10.7745 109.983 10.5691 109.482 10.4389C108.981 10.2986 108.501 10.2285 108.04 10.2285C107.499 10.2285 107.058 10.2936 106.717 10.4239C106.387 10.5541 106.141 10.7244 105.981 10.9348C105.831 11.1451 105.756 11.3856 105.756 11.6561C105.756 11.9766 105.866 12.2371 106.086 12.4374C106.317 12.6278 106.612 12.7781 106.973 12.8883C107.344 12.9985 107.754 13.1086 108.205 13.2188C108.656 13.319 109.102 13.4342 109.542 13.5645C109.993 13.6947 110.399 13.865 110.76 14.0754C111.13 14.2857 111.426 14.5713 111.646 14.9319C111.877 15.2925 111.992 15.7484 111.992 16.2993C111.992 16.8603 111.837 17.3813 111.526 17.8621C111.225 18.333 110.76 18.7137 110.128 19.0042C109.497 19.2847 108.701 19.4249 107.739 19.4249ZM117.43 19.3798C116.589 19.3798 115.837 19.2045 115.176 18.8539C114.525 18.4933 114.014 18.0024 113.643 17.3813C113.273 16.7602 113.087 16.0539 113.087 15.2625C113.087 14.4611 113.273 13.7548 113.643 13.1437C114.014 12.5226 114.525 12.0367 115.176 11.6861C115.837 11.3355 116.589 11.1602 117.43 11.1602C118.212 11.1602 118.898 11.3205 119.489 11.641C120.09 11.9516 120.546 12.4124 120.856 13.0235L119.414 13.865C119.173 13.4843 118.878 13.2038 118.527 13.0235C118.186 12.8432 117.816 12.753 117.415 12.753C116.954 12.753 116.539 12.8532 116.168 13.0535C115.797 13.2539 115.507 13.5444 115.296 13.9251C115.086 14.2958 114.981 14.7416 114.981 15.2625C114.981 15.7834 115.086 16.2342 115.296 16.6149C115.507 16.9856 115.797 17.2711 116.168 17.4714C116.539 17.6718 116.954 17.772 117.415 17.772C117.816 17.772 118.186 17.6818 118.527 17.5015C118.878 17.3212 119.173 17.0407 119.414 16.66L120.856 17.5015C120.546 18.1026 120.09 18.5684 119.489 18.899C118.898 19.2196 118.212 19.3798 117.43 19.3798ZM126.96 11.1602C127.601 11.1602 128.172 11.2854 128.673 11.5358C129.184 11.7863 129.584 12.172 129.875 12.6929C130.165 13.2038 130.311 13.865 130.311 14.6764V19.2747H128.432V14.9169C128.432 14.2056 128.262 13.6747 127.921 13.324C127.591 12.9734 127.125 12.7981 126.524 12.7981C126.083 12.7981 125.692 12.8883 125.352 13.0686C125.011 13.2489 124.746 13.5194 124.555 13.88C124.375 14.2307 124.285 14.6764 124.285 15.2174V19.2747H122.407V8.12475H124.285V13.4142L123.879 12.753C124.16 12.2421 124.565 11.8514 125.096 11.5809C125.637 11.3004 126.258 11.1602 126.96 11.1602ZM136.48 19.3798C135.588 19.3798 134.807 19.2045 134.136 18.8539C133.475 18.4933 132.959 18.0024 132.588 17.3813C132.227 16.7602 132.047 16.0539 132.047 15.2625C132.047 14.4611 132.222 13.7548 132.573 13.1437C132.934 12.5226 133.424 12.0367 134.046 11.6861C134.677 11.3355 135.393 11.1602 136.194 11.1602C136.976 11.1602 137.672 11.3305 138.283 11.6711C138.894 12.0117 139.375 12.4925 139.726 13.1137C140.076 13.7348 140.252 14.4661 140.252 15.3076C140.252 15.3877 140.247 15.4779 140.237 15.5781C140.237 15.6782 140.232 15.7734 140.222 15.8636H133.535V14.6163H139.23L138.493 15.007C138.504 14.5462 138.408 14.1405 138.208 13.7899C138.008 13.4392 137.732 13.1637 137.382 12.9634C137.041 12.763 136.645 12.6629 136.194 12.6629C135.734 12.6629 135.328 12.763 134.977 12.9634C134.637 13.1637 134.366 13.4442 134.166 13.8049C133.975 14.1555 133.88 14.5713 133.88 15.0521V15.3527C133.88 15.8335 133.99 16.2593 134.211 16.6299C134.431 17.0006 134.742 17.2861 135.143 17.4865C135.543 17.6868 136.004 17.787 136.525 17.787C136.976 17.787 137.382 17.7169 137.742 17.5766C138.103 17.4364 138.423 17.216 138.704 16.9154L139.711 18.0725C139.35 18.4933 138.894 18.8188 138.343 19.0493C137.802 19.2696 137.181 19.3798 136.48 19.3798ZM145.452 19.3798C144.681 19.3798 143.984 19.2095 143.363 18.8689C142.752 18.5183 142.271 18.0374 141.921 17.4264C141.57 16.8153 141.395 16.094 141.395 15.2625C141.395 14.431 141.57 13.7097 141.921 13.0986C142.271 12.4875 142.752 12.0117 143.363 11.6711C143.984 11.3305 144.681 11.1602 145.452 11.1602C146.123 11.1602 146.724 11.3104 147.255 11.611C147.786 11.9015 148.207 12.3473 148.517 12.9484C148.828 13.5494 148.983 14.3208 148.983 15.2625C148.983 16.1942 148.833 16.9655 148.532 17.5766C148.232 18.1777 147.816 18.6285 147.285 18.929C146.754 19.2296 146.143 19.3798 145.452 19.3798ZM145.677 17.772C146.128 17.772 146.529 17.6718 146.88 17.4714C147.24 17.2711 147.526 16.9806 147.736 16.5999C147.956 16.2192 148.067 15.7734 148.067 15.2625C148.067 14.7416 147.956 14.2958 147.736 13.9251C147.526 13.5444 147.24 13.2539 146.88 13.0535C146.529 12.8532 146.128 12.753 145.677 12.753C145.227 12.753 144.821 12.8532 144.46 13.0535C144.11 13.2539 143.824 13.5444 143.604 13.9251C143.393 14.2958 143.288 14.7416 143.288 15.2625C143.288 15.7734 143.393 16.2192 143.604 16.5999C143.824 16.9806 144.11 17.2711 144.46 17.4714C144.821 17.6718 145.227 17.772 145.677 17.772ZM148.112 19.2747V17.3813L148.187 15.2475L148.037 13.1137V8.12475H149.9V19.2747H148.112ZM155.768 19.3798C155.087 19.3798 154.486 19.2546 153.965 19.0042C153.444 18.7437 153.038 18.353 152.748 17.8321C152.457 17.3011 152.312 16.6349 152.312 15.8335V11.2503H154.19V15.5781C154.19 16.2993 154.351 16.8403 154.671 17.201C155.002 17.5516 155.468 17.7269 156.069 17.7269C156.51 17.7269 156.89 17.6367 157.211 17.4564C157.541 17.2761 157.797 17.0056 157.977 16.645C158.168 16.2843 158.263 15.8385 158.263 15.3076V11.2503H160.141V19.2747H158.353V17.1108L158.668 17.772C158.398 18.2929 158.002 18.6936 157.481 18.9741C156.96 19.2446 156.389 19.3798 155.768 19.3798ZM162.6 19.2747V8.12475H164.479V19.2747H162.6ZM170.716 19.3798C169.824 19.3798 169.043 19.2045 168.372 18.8539C167.71 18.4933 167.195 18.0024 166.824 17.3813C166.463 16.7602 166.283 16.0539 166.283 15.2625C166.283 14.4611 166.458 13.7548 166.809 13.1437C167.17 12.5226 167.66 12.0367 168.282 11.6861C168.913 11.3355 169.629 11.1602 170.43 11.1602C171.212 11.1602 171.908 11.3305 172.519 11.6711C173.13 12.0117 173.611 12.4925 173.962 13.1137C174.312 13.7348 174.488 14.4661 174.488 15.3076C174.488 15.3877 174.483 15.4779 174.473 15.5781C174.473 15.6782 174.468 15.7734 174.458 15.8636H167.771V14.6163H173.466L172.729 15.007C172.739 14.5462 172.644 14.1405 172.444 13.7899C172.244 13.4392 171.968 13.1637 171.617 12.9634C171.277 12.763 170.881 12.6629 170.43 12.6629C169.97 12.6629 169.564 12.763 169.213 12.9634C168.873 13.1637 168.602 13.4442 168.402 13.8049C168.211 14.1555 168.116 14.5713 168.116 15.0521V15.3527C168.116 15.8335 168.226 16.2593 168.447 16.6299C168.667 17.0006 168.978 17.2861 169.378 17.4865C169.779 17.6868 170.24 17.787 170.761 17.787C171.212 17.787 171.617 17.7169 171.978 17.5766C172.339 17.4364 172.659 17.216 172.94 16.9154L173.947 18.0725C173.586 18.4933 173.13 18.8188 172.579 19.0493C172.038 19.2696 171.417 19.3798 170.716 19.3798ZM176.292 19.2747V11.2503H178.08V13.4593L177.87 12.8131C178.11 12.2722 178.486 11.8614 178.997 11.5809C179.518 11.3004 180.164 11.1602 180.935 11.1602V12.9484C180.855 12.9283 180.78 12.9183 180.71 12.9183C180.64 12.9083 180.569 12.9033 180.499 12.9033C179.788 12.9033 179.222 13.1137 178.801 13.5344C178.381 13.9451 178.17 14.5612 178.17 15.3827V19.2747H176.292Z" fill="#24C56E"/>
<defs>
<clipPath id="clip0_2725_4707">
<rect width="27.5492" height="27.5492" fill="white"/>
</clipPath>
</defs>
</svg>
